# xmcd CD database file
#
# Track frame offsets:
#	182
#	20300
#	39260
#	59770
#	82150
#	98670
#	118245
#	135107
#	151472
#
# Disc length: 2229 seconds
#
# Revision: 1
# Processed by: cddbd v1.5.2PL0 Copyright (c) Steve Scherf et al.
# Submitted via: CDex 1.51
#
DISCID=6d08b309
DTITLE=Roberto Ciotti - Road 'n' Rail
DYEAR=1992
DGENRE=Blues
TTITLE0=Road 'n' Rail
TTITLE1=Sweet Song
TTITLE2=My New Blue Truck
TTITLE3=Early On Sunday
TTITLE4=Reason For The Blues
TTITLE5=She's Mine
TTITLE6=City Child
TTITLE7=I Give Myself To Love
TTITLE8=If You Don't Love Me
EXTD=YEAR: 1992
EXTT0=
EXTT1=
EXTT2=
EXTT3=
EXTT4=
EXTT5=
EXTT6=
EXTT7=
EXTT8=
PLAYORDER=
